# xmcd CD database file
#
# Track frame offsets:
#	150
#	22847
#	47572
#	68698
#	93589
#	117519
#	135847
#	159205
#	181057
#	201261
#	220348
#	245086
#	263904
#	283553
#
# Disc length: 4061 seconds
#
# Revision: 0
# Processed by: cddbd v1.5.1PL0 Copyright (c) Steve Scherf et al.
# Submitted via: CDex 1.51
#
DISCID=bf0fdb0e
DTITLE=Grupo Galé - Salsadicción
DYEAR=1997
DGENRE=Salsa
TTITLE0=Tumbadora
TTITLE1=Las Colas
TTITLE2=Ven A Medelín
TTITLE3=Esas Colas
TTITLE4=Que Tiene Choco
TTITLE5=Rica Combinación
TTITLE6=Mi Novia Y Yo
TTITLE7=Préstame Tu Mujer
TTITLE8=Vuélveme A Querer
TTITLE9=Mi Vecina
TTITLE10=Saboréame
TTITLE11=Las Chicas De La Esquina
TTITLE12=Parece Mentira
TTITLE13=El Virus Del Amor
EXTD=YEAR: 1997
EXTT0=
EXTT1=
EXTT2=
EXTT3=
EXTT4=
EXTT5=
EXTT6=
EXTT7=
EXTT8=
EXTT9=
EXTT10=
EXTT11=
EXTT12=
EXTT13=
PLAYORDER=
